<svg width="30" height="30" viewBox="0 0 30 30" fill="none" xmlns="http://www.w3.org/2000/svg">
<path d="M1.10765 12.1725C1.27716 12.0275 1.91719 11.4075 2.5134 10.8975C6.00877 7.69 15.1271 2.44 19.8997 0.8375C20.6245 0.58 22.4569 0.035 23.4359 0C24.3741 0 25.2684 0.18 26.1218 0.545C27.1856 1.055 28.039 1.8575 28.5066 2.805C28.8076 3.4625 29.2752 5.43 29.2752 5.465C29.7428 7.6175 30 11.115 30 14.98C30 18.6625 29.7428 22.0175 29.36 24.2025C29.3161 24.2375 28.8485 26.6825 28.3371 27.52C27.3989 29.05 25.5665 30 23.6055 30H23.4359C22.1588 29.9625 19.473 29.0125 19.473 28.9775C14.9576 27.3725 6.04968 22.38 2.46956 19.0625C2.46956 19.0625 1.46128 18.21 1.02289 17.6775C0.339016 16.9125 0 15.965 0 15.0175C0 13.96 0.382854 12.975 1.10765 12.1725Z" fill="#A43E2F"/>
</svg>